PathFileType	4	(X/Y/Z)	C:\Users\italobelli\Desktop\GitHub\PTbot_officialCBL\Personal_Results\FLX22_noisy1.trc
DataRate	CameraRate	NumFrames	NumMarkers	Units	OrigDataRate	OrigDataStartFrame	OrigNumFrames
106.125000	106.125000	33	9	m	106.125000	638	850
Frame#	Time		gu		centelbow		EpL		centpxt8		centijc7		ij		ts		aa		ai
			X1	Y1	Z1	X2	Y2	Z2	X3	Y3	Z3	X4	Y4	Z4	X5	Y5	Z5	X6	Y6	Z6	X7	Y7	Z7	X8	Y8	Z8	X9	Y9	Z9

638	6.0024	-0.077728	0.013191	0.15114	0.0073816	-0.2024	0.23155	0.023308	-0.18206	0.25081	-0.046816	-0.15316	-0.008669	-0.046816	0.031938	-0.008669	0	0	0	-0.14235	0.031374	0.041268	-0.10932	0.036682	0.15578	-0.14907	-0.081237	0.05391
639	6.0118	-0.077707	0.012587	0.15141	0.0050059	-0.204	0.23122	0.021122	-0.18402	0.25056	-0.046816	-0.15316	-0.008669	-0.046816	0.031938	-0.008669	0	0	0	-0.14221	0.031382	0.041356	-0.10922	0.036266	0.15603	-0.14929	-0.081224	0.053877
640	6.0212	-0.077683	0.011979	0.15168	0.002578	-0.2056	0.23089	0.018884	-0.18597	0.25031	-0.046816	-0.15316	-0.008669	-0.046816	0.031938	-0.008669	0	0	0	-0.14206	0.031387	0.041461	-0.10912	0.035847	0.15628	-0.14951	-0.081211	0.05385
641	6.0306	-0.077657	0.011365	0.15196	0.00010089	-0.2072	0.23056	0.016597	-0.18792	0.25005	-0.046816	-0.15316	-0.008669	-0.046816	0.031938	-0.008669	0	0	0	-0.14191	0.031389	0.041583	-0.109	0.035426	0.15654	-0.14974	-0.0812	0.05383
642	6.04	-0.077629	0.010748	0.15224	-0.0024225	-0.20878	0.23022	0.014262	-0.18986	0.24979	-0.046816	-0.15316	-0.008669	-0.046816	0.031938	-0.008669	0	0	0	-0.14176	0.031387	0.041721	-0.10888	0.035003	0.15679	-0.14997	-0.081189	0.053817
643	6.0495	-0.077599	0.010127	0.15252	-0.0049892	-0.21036	0.22988	0.011884	-0.19179	0.24953	-0.046816	-0.15316	-0.008669	-0.046816	0.031938	-0.008669	0	0	0	-0.1416	0.031381	0.041875	-0.10874	0.034579	0.15705	-0.1502	-0.081179	0.05381
644	6.0589	-0.077567	0.0095034	0.15281	-0.0075963	-0.21193	0.22954	0.0094642	-0.1937	0.24926	-0.046816	-0.15316	-0.008669	-0.046816	0.031938	-0.008669	0	0	0	-0.14145	0.031373	0.042043	-0.1086	0.034153	0.15731	-0.15043	-0.08117	0.053809
645	6.0683	-0.077534	0.0088773	0.15309	-0.010241	-0.21349	0.2292	0.0070063	-0.19561	0.24899	-0.046816	-0.15316	-0.008669	-0.046816	0.031938	-0.008669	0	0	0	-0.1413	0.031362	0.042225	-0.10845	0.033727	0.15757	-0.15067	-0.081162	0.053814
646	6.0777	-0.077498	0.0082494	0.15338	-0.01292	-0.21504	0.22886	0.004513	-0.1975	0.24872	-0.046816	-0.15316	-0.008669	-0.046816	0.031938	-0.008669	0	0	0	-0.14115	0.031348	0.042421	-0.1083	0.033301	0.15783	-0.15091	-0.081154	0.053824
647	6.0872	-0.077461	0.0076203	0.15367	-0.01563	-0.21657	0.22851	0.0019869	-0.19938	0.24844	-0.046816	-0.15316	-0.008669	-0.046816	0.031938	-0.008669	0	0	0	-0.141	0.031332	0.042629	-0.10813	0.032875	0.15809	-0.15115	-0.081146	0.053839
648	6.0966	-0.077423	0.0069906	0.15396	-0.018369	-0.2181	0.22817	-0.000569	-0.20124	0.24816	-0.046816	-0.15316	-0.008669	-0.046816	0.031938	-0.008669	0	0	0	-0.14084	0.031313	0.042848	-0.10796	0.03245	0.15836	-0.15139	-0.081139	0.05386
649	6.106	-0.077383	0.0063607	0.15425	-0.021133	-0.21961	0.22782	-0.003152	-0.20309	0.24788	-0.046816	-0.15316	-0.008669	-0.046816	0.031938	-0.008669	0	0	0	-0.14069	0.031292	0.043079	-0.10778	0.032025	0.15862	-0.15163	-0.081133	0.053885
650	6.1154	-0.077343	0.0057312	0.15454	-0.02392	-0.22111	0.22747	-0.0057592	-0.20492	0.2476	-0.046816	-0.15316	-0.008669	-0.046816	0.031938	-0.008669	0	0	0	-0.14054	0.031268	0.043319	-0.1076	0.031602	0.15888	-0.15187	-0.081127	0.053914
651	6.1249	-0.077301	0.0051028	0.15482	-0.026727	-0.22259	0.22712	-0.0083879	-0.20673	0.24731	-0.046816	-0.15316	-0.008669	-0.046816	0.031938	-0.008669	0	0	0	-0.14039	0.031243	0.04357	-0.10741	0.031181	0.15914	-0.15212	-0.081122	0.053947
652	6.1343	-0.077258	0.0044759	0.15511	-0.02955	-0.22405	0.22677	-0.011035	-0.20852	0.24702	-0.046816	-0.15316	-0.008669	-0.046816	0.031938	-0.008669	0	0	0	-0.14024	0.031216	0.043828	-0.10722	0.030762	0.15941	-0.15236	-0.081117	0.053984
653	6.1437	-0.077214	0.0038511	0.1554	-0.032387	-0.2255	0.22642	-0.013698	-0.21029	0.24673	-0.046816	-0.15316	-0.008669	-0.046816	0.031938	-0.008669	0	0	0	-0.14009	0.031187	0.044095	-0.10703	0.030345	0.15967	-0.15261	-0.081112	0.054025
654	6.1531	-0.07717	0.003229	0.15569	-0.035235	-0.22692	0.22607	-0.016374	-0.21204	0.24644	-0.046816	-0.15316	-0.008669	-0.046816	0.031938	-0.008669	0	0	0	-0.13994	0.031156	0.044369	-0.10683	0.029931	0.15993	-0.15285	-0.081108	0.054068
655	6.1625	-0.077125	0.0026102	0.15597	-0.03809	-0.22833	0.22571	-0.01906	-0.21376	0.24614	-0.046816	-0.15316	-0.008669	-0.046816	0.031938	-0.008669	0	0	0	-0.13979	0.031124	0.044649	-0.10662	0.029521	0.16018	-0.15309	-0.081104	0.054115
656	6.172	-0.07708	0.0019951	0.15625	-0.040951	-0.22972	0.22536	-0.021754	-0.21547	0.24584	-0.046816	-0.15316	-0.008669	-0.046816	0.031938	-0.008669	0	0	0	-0.13964	0.031091	0.044935	-0.10642	0.029115	0.16044	-0.15333	-0.0811	0.054164
657	6.1814	-0.077034	0.0013844	0.15653	-0.043813	-0.23108	0.225	-0.024452	-0.21714	0.24555	-0.046816	-0.15316	-0.008669	-0.046816	0.031938	-0.008669	0	0	0	-0.13949	0.031057	0.045226	-0.10621	0.028713	0.1607	-0.15357	-0.081097	0.054216
658	6.1908	-0.076988	0.00077853	0.15681	-0.046674	-0.23243	0.22465	-0.027152	-0.21879	0.24525	-0.046816	-0.15316	-0.008669	-0.046816	0.031938	-0.008669	0	0	0	-0.13935	0.031022	0.045521	-0.106	0.028315	0.16095	-0.15381	-0.081093	0.05427
659	6.2002	-0.076943	0.00017818	0.15708	-0.049531	-0.23375	0.2243	-0.029851	-0.22041	0.24495	-0.046816	-0.15316	-0.008669	-0.046816	0.031938	-0.008669	0	0	0	-0.1392	0.030987	0.04582	-0.10578	0.027923	0.1612	-0.15405	-0.08109	0.054325
660	6.2097	-0.076897	-0.00041615	0.15735	-0.052381	-0.23504	0.22394	-0.032545	-0.22201	0.24465	-0.046816	-0.15316	-0.008669	-0.046816	0.031938	-0.008669	0	0	0	-0.13906	0.03095	0.046121	-0.10557	0.027536	0.16145	-0.15428	-0.081087	0.054383
661	6.2191	-0.076851	-0.0010039	0.15762	-0.055221	-0.23631	0.22359	-0.035233	-0.22357	0.24435	-0.046816	-0.15316	-0.008669	-0.046816	0.031938	-0.008669	0	0	0	-0.13892	0.030913	0.046424	-0.10536	0.027154	0.16169	-0.15451	-0.081084	0.054441
662	6.2285	-0.076806	-0.0015845	0.15789	-0.058048	-0.23756	0.22323	-0.037912	-0.2251	0.24405	-0.046816	-0.15316	-0.008669	-0.046816	0.031938	-0.008669	0	0	0	-0.13877	0.030876	0.046729	-0.10515	0.026779	0.16193	-0.15474	-0.081081	0.0545
663	6.2379	-0.076761	-0.0021574	0.15814	-0.060859	-0.23877	0.22288	-0.040578	-0.2266	0.24374	-0.046816	-0.15316	-0.008669	-0.046816	0.031938	-0.008669	0	0	0	-0.13864	0.030839	0.047034	-0.10493	0.026411	0.16217	-0.15496	-0.081078	0.054561
664	6.2473	-0.076717	-0.0027221	0.1584	-0.063651	-0.23996	0.22253	-0.043229	-0.22807	0.24344	-0.046816	-0.15316	-0.008669	-0.046816	0.031938	-0.008669	0	0	0	-0.1385	0.030802	0.047338	-0.10472	0.026049	0.16241	-0.15518	-0.081075	0.054621
665	6.2568	-0.076673	-0.0032779	0.15865	-0.066422	-0.24112	0.22217	-0.045862	-0.22951	0.24314	-0.046816	-0.15316	-0.008669	-0.046816	0.031938	-0.008669	0	0	0	-0.13836	0.030764	0.047642	-0.10451	0.025695	0.16264	-0.1554	-0.081071	0.054682
666	6.2662	-0.07663	-0.0038244	0.15889	-0.069168	-0.24225	0.22182	-0.048474	-0.23091	0.24284	-0.046816	-0.15316	-0.008669	-0.046816	0.031938	-0.008669	0	0	0	-0.13823	0.030728	0.047943	-0.1043	0.025349	0.16286	-0.15561	-0.081068	0.054743
667	6.2756	-0.076588	-0.0043609	0.15913	-0.071885	-0.24335	0.22147	-0.051063	-0.23227	0.24254	-0.046816	-0.15316	-0.008669	-0.046816	0.031938	-0.008669	0	0	0	-0.1381	0.030691	0.048243	-0.1041	0.025011	0.16308	-0.15582	-0.081065	0.054803
668	6.285	-0.076547	-0.004887	0.15936	-0.074573	-0.24441	0.22112	-0.053625	-0.23359	0.24224	-0.046816	-0.15316	-0.008669	-0.046816	0.031938	-0.008669	0	0	0	-0.13797	0.030655	0.048538	-0.10389	0.024682	0.1633	-0.15602	-0.081061	0.054862
669	6.2945	-0.076507	-0.005402	0.15959	-0.077226	-0.24544	0.22077	-0.056158	-0.23488	0.24194	-0.046816	-0.15316	-0.008669	-0.046816	0.031938	-0.008669	0	0	0	-0.13784	0.03062	0.04883	-0.10369	0.024361	0.16351	-0.15622	-0.081057	0.054921
670	6.3039	-0.076469	-0.0059054	0.15981	-0.079843	-0.24644	0.22042	-0.058659	-0.23613	0.24164	-0.046816	-0.15316	-0.008669	-0.046816	0.031938	-0.008669	0	0	0	-0.13772	0.030586	0.049117	-0.1035	0.02405	0.16372	-0.15641	-0.081053	0.054978
